<svg width="30" height="30" viewBox="0 0 30 30" fill="none" xmlns="http://www.w3.org/2000/svg">
<path id="Vector" fill-rule="evenodd" clip-rule="evenodd" d="M3.53469 0.958377C3.86266 0.630375 4.25662 0.375858 4.69044 0.211713C5.12427 0.0475667 5.58803 -0.0224563 6.05098 0.00628878C6.51393 0.0350339 6.96547 0.16189 7.37566 0.378441C7.78584 0.594993 8.14529 0.89629 8.43016 1.26234L11.7918 5.58587C12.4097 6.37779 12.6277 7.41167 12.3837 8.38557L11.3578 12.4911C11.3045 12.7042 11.3072 12.9274 11.3657 13.139C11.4243 13.3507 11.5366 13.5436 11.6918 13.699L16.2993 18.3045C16.4547 18.4597 16.6476 18.572 16.8593 18.6306C17.0709 18.6891 17.2941 18.6918 17.5072 18.6385L21.6107 17.6126C22.092 17.4924 22.5944 17.4832 23.0798 17.5857C23.5652 17.6883 24.0209 17.8999 24.4124 18.2045L28.736 21.5661C30.2898 22.774 30.4338 25.0718 29.0419 26.4616L27.1021 28.4014C25.7163 29.7872 23.6425 30.3972 21.7087 29.7172C16.7621 27.9761 12.2709 25.1437 8.56815 21.4301C4.85383 17.7276 2.02075 13.2364 0.279048 8.28958C-0.400878 6.35579 0.209056 4.28202 1.5949 2.89417L3.53469 0.956377V0.958377Z" fill="#BFBFBF"/>
</svg>
