<svg width="40" height="40" viewBox="0 0 40 40" fill="none" xmlns="http://www.w3.org/2000/svg">
<g id="vuesax/bold/user-square">
<g id="user-square">
<g id="Group">
<path id="Vector" d="M26.983 3.33331H13.0163C6.94967 3.33331 3.33301 6.94998 3.33301 13.0166V26.9833C3.33301 31.6666 5.48301 34.8833 9.26634 36.1C10.3663 36.4833 11.633 36.6666 13.0163 36.6666H26.983C28.3663 36.6666 29.633 36.4833 30.733 36.1C34.5163 34.8833 36.6663 31.6666 36.6663 26.9833V13.0166C36.6663 6.94998 33.0497 3.33331 26.983 3.33331ZM34.1663 26.9833C34.1663 30.55 32.7663 32.8 29.9497 33.7333C28.333 30.55 24.4997 28.2833 19.9997 28.2833C15.4997 28.2833 11.683 30.5333 10.0497 33.7333H10.033C7.24967 32.8333 5.83301 30.5666 5.83301 27V13.0166C5.83301 8.31665 8.31634 5.83331 13.0163 5.83331H26.983C31.683 5.83331 34.1663 8.31665 34.1663 13.0166V26.9833Z" fill="#292D32"/>
<path id="Vector_2" d="M19.9999 13.3333C16.6999 13.3333 14.0332 16 14.0332 19.3C14.0332 22.6 16.6999 25.2833 19.9999 25.2833C23.2999 25.2833 25.9665 22.6 25.9665 19.3C25.9665 16 23.2999 13.3333 19.9999 13.3333Z" fill="#292D32"/>
</g>
</g>
</g>
</svg>
